<svg id="logo" data-name="Layer 1" xmlns="http://www.w3.org/2000/svg" viewBox="0 0 147.28 210.65"><path d="M134.09 194.64zM147.13 202.3c-.09-.58-.18-.67-.82-.74 0-.29-.15-.43-.4-.57a2.53 2.53 0 00-1.44-.37.55.55 0 01-.65-.41.65.65 0 00-.69-.43 2.15 2.15 0 01-.21.4c-.07.09-.19.21-.29.2s-.2-.15-.24-.25c-.2-.53-.2-.54-.67-.15a.54.54 0 01-.79.05c0-.28.28-.65-.32-.85l-.21.47a4 4 0 01-1.14-.47 13.48 13.48 0 01-1.44-1.18c-.35-.38-.89-.65-1.12-1.09a8.25 8.25 0 00-1.52-1.7 1.7 1.7 0 00-.33-.22c.11.66.08.71-.49.89a1.17 1.17 0 01-.29-1.25l-.52.23c-.08-.24 0-.38.2-.4s.21.1.35.17a.5.5 0 00.21-.13.37.37 0 00.05-.11.44.44 0 000-.14c-.25-.62-.51-1.24-.76-1.84-.57 0-.57 0-.67-.64l-.39.61.43 1c.39 0 .47.34.62.61 0 .07-.07.22-.11.33-.09 0-.25-.09-.26-.15 0-.34-.31-.42-.57-.55-.46-.24-1-.49-1-1.13 0-.46-.38-.39-.59-.36a10.73 10.73 0 01-.91-1.13c-.36-.56-.68-1.15-1-1.75-.24-.44-.4-.92-.66-1.34s-.83-.94-.93-1.62a1.12 1.12 0 00-.48-.68 1.14 1.14 0 01-.44-1 .89.89 0 00-.41-.69c-.18-.15-.45-.37-.43-.53 0-.38-.23-.61-.3-.92a5.91 5.91 0 00-1.08-2.08 4.83 4.83 0 01-.5-.92c-.22-.55-.39-1.12-.57-1.69a4.75 4.75 0 00-.27-.93 8.23 8.23 0 01-1.23-3.35c0-.11-.12-.22-.19-.33a4 4 0 01-.22-.4c-.36-.89-.47-1.86-.89-2.74a8 8 0 01-.37-1.79.76.76 0 00-.1-.31 1.4 1.4 0 01-.25-.93 7 7 0 00-.31-1.8 3.22 3.22 0 010-1.87 1.76 1.76 0 00-.11-1.7c-.28-.16-.7.11-.89-.34l.48-.29-.14-.69-.35.23c-.14-.31-.26-.59-.39-.86s-.12-.5.18-.6.38-.43.36-.75c0 0 0-.1-.08-.17l-.22.13a5.11 5.11 0 01-.39-.42 1.61 1.61 0 01-.32-.48c-.17-.73-.3-1.46-.46-2.19a1.13 1.13 0 01.13-1c-.06-.58-.08-1-.16-1.48a2.84 2.84 0 00-.25-.93 1.86 1.86 0 01-.4-1.4.88.88 0 00-.11-.57 2.07 2.07 0 01-.1-1.67 1.24 1.24 0 00-.3-1.27 1.06 1.06 0 01-.16-.52v-.45c-.1-.87-.22-1.75-.32-2.62a.63.63 0 00-.39-.61.56.56 0 01-.31-.38 7.63 7.63 0 010-1.51 1.2 1.2 0 00-.16-.88 3.07 3.07 0 01-.52-1.51v-.12c-.21-.74-.41-1.47-.63-2.21-.09-.33-.2-.65-.29-1a.71.71 0 010-.38 1.22 1.22 0 00-.2-1.29 1 1 0 01-.12-.3 3.11 3.11 0 00-.57-1.32 1.22 1.22 0 01-.14-.56c-.12-.68-.24-1.37-.34-2.06a8.16 8.16 0 01-.33-2.46 1.68 1.68 0 00-.22-1.06c-.28-.55-.1-1.26-.52-1.79-.07-1.07-.14-2.15-.18-3.22v-2c0-.64-.44-1.33-.18-2v-.06c-.25-.38-.1-.76 0-1.15a1.72 1.72 0 000-.39c-.07-.52-.14-1-.22-1.55s-.25-1.12.3-1.6a1.46 1.46 0 01-.76-1.3 5.63 5.63 0 01.13-1 1.49 1.49 0 000-.76 8.78 8.78 0 01-.36-1.75 15.46 15.46 0 01-.25-1.66 6.5 6.5 0 00-.22-.62.81.81 0 01-.08-.47 2.44 2.44 0 000-1.17 7.25 7.25 0 010-1 1.27 1.27 0 000-.48 2.89 2.89 0 010-1.58l.41.34c.24-.35.41-.64.06-1-.08-.08 0-.29-.06-.43v-.42c-.23-.21-.66-.09-.68-.48v-2c0-.09.14-.25.23-.25s.24.12.27.22c.09.33.14.67.2 1a8.86 8.86 0 00.07-1.36c0-.22-.08-.41-.32-.44-.4 0-.46-.33-.49-.66a1 1 0 01.44-1.08s0-.12.07-.22l-.24-.19a2.16 2.16 0 01-.79-1.46c-.06-.84 0-1.67-.09-2.51s-.12-1.95-.17-2.93a16 16 0 01-.05-2 4.16 4.16 0 00-.17-2.07.85.85 0 010-.32 6.66 6.66 0 01.25-2.35 1.63 1.63 0 000-.76c-.1-.49-.32-1-.38-1.46a8.74 8.74 0 01-.07-2.28c.09-.58.08-1.36.82-1.56.06-.33 0-.68.19-.85s.51-.13.83-.2c-.16-.5.17-1-.25-1.51a.48.48 0 01.1-.44c.31-.18.3-.45.32-.73s.09-.65.13-1c0-.11.06-.24 0-.32-.2-.36 0-.69 0-1 0-.17.12-.42 0-.5-.4-.38-.17-.74 0-1.07a.69.69 0 000-.79c0-.08 0-.23.06-.37l.29.16a5 5 0 01.27-1.23 2 2 0 00.18-.81V60.6c.08-1.75.62-3.45.54-5.22a1.27 1.27 0 010-.26 6.49 6.49 0 000-2.74 1.36 1.36 0 010-.45c0-.64.45-1.25.11-1.91 0-.09 0-.26.09-.38a2.35 2.35 0 00.17-1.48.74.74 0 010-.39 7.24 7.24 0 00.22-2c0-.22.06-.43.1-.65.15-.9.36-1.79.46-2.7.15-1.39.23-2.79.34-4.19a1.28 1.28 0 01.06-.33 8.69 8.69 0 00.63-3.84 1.8 1.8 0 010-.46c.06-.39.13-.78.19-1.17a7 7 0 01.42-2.12 1.6 1.6 0 00.08-.58c0-.19 0-.39.08-.58.11-.65.26-1.29.32-1.94a27.67 27.67 0 00.2-3c0-1.23.56-2.4.28-3.65v-.25a22.82 22.82 0 00.33-4.05c0-1.41-.3-2.79-.41-4.19a1.45 1.45 0 00-.16-.42A5.25 5.25 0 00113 9.87a25 25 0 00-2.28-1.51.21.21 0 00-.13 0 2.49 2.49 0 01-1.22-.36.39.39 0 00-.48.07l-1.73 1.56a2.18 2.18 0 00-.93 1.92.56.56 0 01-.06.23c-.18.09-.41.12-.48.24a3 3 0 00-.66 1.46c0 .49-.11.6-.58.73a1.17 1.17 0 01-.51.09c-.51-.08-.86.3-1.3.41-.08 0-.16.15-.19.24a8.19 8.19 0 00-.29 1.54 1 1 0 01-.48 1l.33.42c-.43.41-.43.41-.54.91a7.27 7.27 0 00-.32 2 17 17 0 01-.27 2.54 5.36 5.36 0 00-.12 1 1.74 1.74 0 01-.17.81 1.09 1.09 0 000 .81c.12.29.15.48-.07.7a.47.47 0 00-.14.29 5.62 5.62 0 01-.22 1.91 20.48 20.48 0 00-.17 2.72 3 3 0 01-.15 1 4.56 4.56 0 00-.31 1.66 3.76 3.76 0 010 .59 32.79 32.79 0 00-.57 3.55 9.43 9.43 0 00-.06 3.18 1 1 0 010 .46 9.25 9.25 0 00-.32 2.4c0 .26-.07.52-.11.78s-.11.6-.14.9c-.06.59 0 1.19-.15 1.77-.06.4-.11.79-.14 1.2a6.74 6.74 0 000 1.68 1.84 1.84 0 01-.11.64 2.36 2.36 0 00-.11.44c0 .81 0 1.62-.06 2.43a8 8 0 01-.11.84 1.17 1.17 0 000 .45 1.32 1.32 0 01-.1 1c0 .1-.11.24-.07.31.24.46 0 .88 0 1.33a17.42 17.42 0 00-.18 3.15c0 .31.33.65 0 1 0 0 .1.18.12.29.1.5.34 1-.08 1.5a.65.65 0 000 .44 5 5 0 010 2.4 3.63 3.63 0 00-.34 1.65 2.77 2.77 0 010 1.75 1.42 1.42 0 00.06 1 3.3 3.3 0 01.22 1.27 10.08 10.08 0 00.17 2.69 5 5 0 01-.08 2 5.62 5.62 0 000 1.42c0 .41.19.81.21 1.22.06 1.09.08 2.19.11 3.28v.72l-.12 3.09c0 .5 0 1-.07 1.49a.08.08 0 000 .12 1.67 1.67 0 01.43 1.63 1 1 0 00.11.75 2.69 2.69 0 01.24 1.14 1.22 1.22 0 00.3.91c.06 0 0 .2 0 .28a.81.81 0 01-1-.07l-.29.59.6.35.14-.52c.3.27.51.46.37.83a4.51 4.51 0 00-.18.81c-.06.38.4.34.54.57-.55.26-.57.26-.55.84a9 9 0 00.16 1 1 1 0 010 .38 4 4 0 00.3 1.64 3.21 3.21 0 01-.08 1.29 3.23 3.23 0 00-.26-.53.36.36 0 00-.61 0c-.26.35-.76.57-.68 1.16-.08-.57-.06-1.15-.69-1.41a.83.83 0 00-.14-1l.19-.32c-.27-.22-.44-.09-.61.06-.44.36-.44.35-.91 0h-.22c.06.5.12 1 .19 1.55l.33-.63a.59.59 0 010 .81 1.57 1.57 0 00-.32.41 6.91 6.91 0 00-.48 3 10.86 10.86 0 01.08 2.35 4.11 4.11 0 00.16 1.11 1.24 1.24 0 00-.08 1.2 1 1 0 01-.45 1 .47.47 0 00-.29.58 1.7 1.7 0 00.09.39 1.55 1.55 0 01-.07 1.39.9.9 0 00-.12.63 1 1 0 01-.12.82c-.16.31-.39.59-.6.91.72 0 .72.63 1 1.1-.35.06-.47-.1-.62-.31s-.28-.29-.63-.14l.5.2-.52.25.29.41c-.55.18-.6.63-.56 1.06a4.26 4.26 0 01-.19 2.32 1.18 1.18 0 000 .2c0 .86-.08 1.72-.19 2.57-.06.55 0 1.11-.07 1.65a25.79 25.79 0 00-.24 3.4c0 .17 0 .35-.06.52s0 .53 0 .79v.83c0 .27-.1.6-.15.91s0 .39-.08.58c-.11.64-.26 1.27-.33 1.92a14.26 14.26 0 01-.32 2.82c-.2.6-.2 1.25-.36 1.88a5.54 5.54 0 00-.4 2.17.73.73 0 01-.09.31 3 3 0 00-.39 1.64c0 .1-.06.21-.09.31s-.08.33-.11.5-.07.47-.12.7-.14.51-.19.77c-.09.42-.14.86-.26 1.28s-.48.8-.29 1.3v.12c-.32.67-.64 1.33-1 2a2.1 2.1 0 00-.36 1.48c0 .12-.09.29-.16.42a7.52 7.52 0 00-.48 1c-.25.86-.45 1.73-.7 2.6-.14.48-.32.94-.5 1.41-.26.71-.54 1.42-.82 2.13a2.23 2.23 0 01-.31.7 7 7 0 01-2.19 1.91 1 1 0 01-1.13-.08 2.91 2.91 0 01-.48-.45 11.77 11.77 0 01-1.87-3.38c-.41-.94-.74-1.92-1.06-2.9-.16-.5-.23-1-.34-1.54-.07-.32-.12-.64-.21-.95-.18-.61-.41-1.2-.58-1.82a13.34 13.34 0 00-.39-1.66A32 32 0 0175 144c-.12-.42-.24-.85-.33-1.27-.21-1-.43-2.07-.6-3.11a20.79 20.79 0 01-.25-2.49c-.07-2 .16-4 0-5.92a4.61 4.61 0 010-.53 15.11 15.11 0 00-.08-3.8c-.06-.36-.16-.63-.5-.58a11.32 11.32 0 01-.34-1.17 5 5 0 01-.07-1v-2.23c0-.34-.19-.67-.22-1a12.7 12.7 0 01-.13-3.59 4 4 0 000-.59 3.83 3.83 0 00-.16-1.68c0-.11 0-.26.05-.39 0-.46.12-.91.12-1.37 0-1-.07-1.93-.07-2.89s.06-2.1.07-3.15a5.47 5.47 0 00-.12-.78 1.45 1.45 0 01-.05-.58 4.74 4.74 0 00.1-2.15c-.06-.38 0-.73.17-.88l.07-1v-.33c.09-1 .17-2 .26-3.07A11.73 11.73 0 0072.7 94c.49-.33.53-.42.49-.83a5.06 5.06 0 010-2.59.72.72 0 000-.26c0-1.1 0-2.21.17-3.3a9.68 9.68 0 01.52-3.21 1.18 1.18 0 000-.2 5.5 5.5 0 00.12-1.85 1.55 1.55 0 01.08-.71 1.23 1.23 0 00-.08-1.44c.39-.42.37-.42.28-1.08a1.18 1.18 0 01.17-.67c.14-.26.39-.47.54-.73a1.78 1.78 0 00.19-1.47l-.83-.12c.06-.2.09-.34.13-.47a9.74 9.74 0 00.5-1.62 14.83 14.83 0 000-2.11 1.88 1.88 0 00-.07-.58c-.16-.52-.37-1-.52-1.54s-.2-.77.26-1c.13-.07.18-.33.2-.52a6.92 6.92 0 00.09-1.11v-1.64c0-.19-.08-.44 0-.58.32-.5.1-1 0-1.45s-.39-.84-.49-1.26a5.53 5.53 0 01.07-1.45h-.35c-.15-.39-.29-.76-.45-1.12-.06-.13-.17-.32-.28-.33-.35 0-.37-.32-.51-.53a2.69 2.69 0 00-.37-.45c-.14-.15-.3-.3-.45-.44a2 2 0 00-1.53-.7c-.48 0-.94.21-1.41.24A2.34 2.34 0 0067 58.16c-.19.35-.41.69-.61 1a2.43 2.43 0 01-.7.76.76.76 0 00-.36.5 2.17 2.17 0 01-.83 1.37 11.82 11.82 0 00-2 2l.25.33a1.74 1.74 0 00-1 1.61 4.06 4.06 0 01-.18 1 2.64 2.64 0 00-.07 1.09 10.29 10.29 0 01-.21 3.45.14.14 0 010 .06 7.59 7.59 0 00-.57 2.15c-.21.79-.34 1.61-.5 2.42a10.75 10.75 0 00-.3 1.34c-.23 2.75-.46 5.5-.66 8.25-.08 1.07-.11 2.14-.16 3.21 0 .77-.05 1.53-.1 2.3l-.15 2.29c0 .42-.07.83-.09 1.25a24.31 24.31 0 00-.06 2.56 60.84 60.84 0 010 6.19c0 1.1-.14 2.19-.12 3.29s.1 2.4.18 3.6c.15 1.94.24 3.9.5 5.82.16 1.15.11 2.31.36 3.45s.32 2 .46 3.05c.05.37.07.75.1 1.12a1.7 1.7 0 00.06.51 9.24 9.24 0 01.42 2.66 7.84 7.84 0 00.38 2.58 2.76 2.76 0 01.13.77c0 .48 0 1 .14 1.44.19 1 .44 2 .63 2.95s.36 2.2.52 3.31a6.21 6.21 0 01.06 2.54 7 7 0 01-.45 1.77 4.21 4.21 0 00-.5 1.36 16.49 16.49 0 01-1.41 3.71 2.71 2.71 0 00-.16.78 1 1 0 01-.4.86.77.77 0 00-.23.35c-.15.35-.25.71-.41 1-.27.58-.65.61-1.05.11a1.34 1.34 0 01-.12-.3c-.14-.33-.26-.65-.72-.65-.21 0-.52-.44-.51-.67a2.72 2.72 0 00-.34-1.48 1.4 1.4 0 01-.17-.57 2.5 2.5 0 00-.55-1.38c-.24-.31-.59-.65-.6-1a4.19 4.19 0 00-.77-1.78c-.08-.15-.27-.25-.4-.37a.62.62 0 00-.19.77c.19.53.38 1.07.58 1.6l.69 1.77a1.78 1.78 0 00.62.91c.17.13.37.43.33.59a1.76 1.76 0 00.31 1.36 10.51 10.51 0 011.31 3.69c0 .5 0 .66-.36.79s-.71-.06-.77-.33a7.3 7.3 0 00-.45-.93 6 6 0 00-.48-1 5.24 5.24 0 01-.38-1c-.14-.38-.27-.77-.41-1.16a6.37 6.37 0 00-.23-.61 3.43 3.43 0 00-.6-1.21 2.85 2.85 0 01-.82-1.52 2.77 2.77 0 00-.22-.46c-.07-.16-.17-.3-.25-.45-.52-1-.72-2.24-1.71-3-.06 0-.06-.15-.1-.23a2.29 2.29 0 00-.28-.51c-.22-.23-.09-.65-.46-.8a1.32 1.32 0 01.12-.46c0-.1.17-.16.33-.3l-.79-.33.16-.41a1.4 1.4 0 01-.87-1.17 7.76 7.76 0 00-.46-1.41 1.91 1.91 0 01-.13-.51.87.87 0 00-.39-.71 1 1 0 01-.33-.55 1 1 0 00-.39-.65.74.74 0 01-.22-.32c-.25-.62-.51-1.25-.75-1.89a9.88 9.88 0 01-.61-1.73 3.45 3.45 0 00-.6-1.42 4.93 4.93 0 01-.61-1.34 5.92 5.92 0 01-.37-1.56s-.09-.08-.14-.12l-.34.2c0-.07-.07-.08-.07-.1-.21-.78-.75-1.41-.93-2.2a3 3 0 01-.2-.62 3.19 3.19 0 00-.64-1.64 1.47 1.47 0 01-.29-.91.84.84 0 00-.28-.68 3.31 3.31 0 01-.86-1.44c-.09-.45-.19-.9-.27-1.35a1.68 1.68 0 00-.58-1.07 1.69 1.69 0 01-.37-.61 3.32 3.32 0 01-.24-.59 8.22 8.22 0 00-.36-1.25 7.78 7.78 0 00-.81-1.1s0-.08-.06-.12c-.36-.63-.4-1.41-.95-2a1.2 1.2 0 01-.2-1.13 2.3 2.3 0 000-.41 1.26 1.26 0 01-1.11-1.12c.66-.53.66-.91.1-1.56a7.61 7.61 0 01-1-1.32 8.31 8.31 0 00-1-2 3.44 3.44 0 01-.51-.9 4.11 4.11 0 01-.29-.73 9.39 9.39 0 00-.84-2.42c-.18-.32-.09-.54.33-.72a14.15 14.15 0 011.27 1.62 17.8 17.8 0 011 2.27V102.29h.38l.37.64c.3.53.61 1.06.89 1.6.15.29.22.62.37.9.66 1.22 1.34 2.42 2 3.64.14.27.21.58.34.85.56 1.12 1.15 2.21 1.68 3.34.68 1.47 1.31 3 2 4.44a4 4 0 00.26.45 6.85 6.85 0 01.74 1.45 4.15 4.15 0 001 2 1.25 1.25 0 01.16.35l.72 2a7.3 7.3 0 00.26.79q.89 1.88 1.8 3.72a7.25 7.25 0 00.5.73l.34.6a.25.25 0 00.05.43 2.21 2.21 0 00.59.26.48.48 0 00.4-.11.38.38 0 000-.35 1 1 0 01-.13-1c.07-.25.15-.5.2-.76a.85.85 0 000-.5 1.43 1.43 0 01-.2-1.26c.21-.53-.48-.77-.39-1.26v-.07a.49.49 0 00-.37-.55 1 1 0 01-.27-.22l.45-.5c0-.11 0-.24-.1-.31a1.23 1.23 0 01-.26-1.23.86.86 0 00-.09-.36c-.18-.59-.43-1.16-.55-1.76-.2-1-.82-1.88-.79-2.94 0-.14-.11-.28-.16-.43a7.16 7.16 0 01-.4-1.24 4.85 4.85 0 00-.53-1.86.93.93 0 01-.1-.37c-.06-.7-.08-1.4-.18-2.09s-.33-1.66-.51-2.49a4.83 4.83 0 00-.16-.5c-.18-.74-.38-1.48-.55-2.23a8.81 8.81 0 01-.26-1.34 22.09 22.09 0 00-.62-3.62c-.21-.87-.37-1.74-.53-2.62a7.3 7.3 0 00-.44-2 2.69 2.69 0 01-.12-1 3.93 3.93 0 000-.91 22.29 22.29 0 01-.73-3.81c-.13-1-.28-2-.45-3s-.44-2.24-.63-3.36c-.15-.86-.4-1.69-.47-2.58a26.84 26.84 0 00-.54-2.9c-.25-1.36-.49-2.72-.73-4.07 0-.26-.14-.52-.18-.78-.18-1.25-.34-2.52-.52-3.77-.13-1-.31-1.91-.4-2.87-.13-1.38-.16-2.76-.33-4.13a11.54 11.54 0 00-.43-3.1.77.77 0 010-.26l-.12-1.71c-.07-.91 0-1.82-.13-2.74-.13-1.26-.06-2.55-.07-3.82v-2.11c-.06-2.09-.17-4.17-.2-6.25 0-1.37.06-2.73.1-4.09 0-.85.07-1.71.1-2.56a3.17 3.17 0 000-.53c-.23-1.49.22-2.95.17-4.45a18.53 18.53 0 01.56-4c.3-1.67.37-3.39.54-5.1a4.42 4.42 0 01.12-1 16.05 16.05 0 00.61-3.22c.17-1.17.38-2.34.57-3.51 0-.26.07-.52.12-.78.09-.47.24-.93.3-1.4a27.7 27.7 0 00-.47-6.7 1.75 1.75 0 00-.2-.47c-.15-.3-.31-.59-.45-.89-.27-.59-.52-1.2-.81-1.8a2.32 2.32 0 00-.43-.55c-.2-.21-.42-.39-.63-.58a4.38 4.38 0 00-2-1.26A1.26 1.26 0 0134 .28a2.2 2.2 0 00-2.14 0 4.05 4.05 0 00-1.45 1.1c-.27.32-.41.76-.71 1a4.91 4.91 0 00-1.17 1.8A3.62 3.62 0 0127 5.88a3.37 3.37 0 00-.52.48c-.41.38-.4 1-.69 1.41a5.72 5.72 0 00-.54 1.87 21.56 21.56 0 00-.32 2.28c-.17 1.21-.35 2.42-.52 3.64v.26c0 .36-.05.74-.1 1.1-.1.6-.24 1.2-.32 1.81s-.13 1.48-.19 2.22a18.17 18.17 0 01-.18 2.35 20.64 20.64 0 00-.3 2.93c-.07 1.09-.1 2.19-.13 3.28-.05 1.64-.12 3.29-.14 4.93 0 2.1 0 4.2.19 6.29q.2 2.13.36 4.26v1.11c.05.81.11 1.62.15 2.43.06 1.27.1 2.54.16 3.81 0 .37.1.73.11 1.1 0 .66.05 1.32.05 2V64.77c0 1.65-.12 3.3 0 4.93s-.18 3 0 4.53a26.59 26.59 0 01-.07 3.18v3.55c0 .5-.27.72-.76.59l-.18-.08c-.5-.25-1-.54-1.52-.75-.79-.32-1.62-.55-2.39-.91a6.5 6.5 0 00-3-.2 6.34 6.34 0 01-.85.1 4 4 0 00-1.67.26A7.49 7.49 0 0011.34 81c-.61.48-1.24 1-1.86 1.43a2.91 2.91 0 00-.61.47c-.56.78-1.08 1.58-1.62 2.38-.09.14-.21.27-.31.41a5.19 5.19 0 00-.54.81 3.74 3.74 0 01-1 1.5 5 5 0 00-.82 1.37c-.36.59-.27 1.4-.85 1.91-.07.06-.07.21-.08.31a5.47 5.47 0 01-.3 1.73 21.06 21.06 0 00-.62 2.27A4.82 4.82 0 012.3 97a3.34 3.34 0 00-.3 1.71 6.13 6.13 0 01-.09.85c-.21 1.11-.46 2.22-.64 3.34-.14.88-.18 1.78-.29 2.67s-.3 1.64-.42 2.43c0 .16 0 .31-.05.46 0 .5-.11 1-.15 1.51-.06.72-.15 1.44-.17 2.16v3c0 .83-.16 1.66-.15 2.49 0 2.08.11 4.16.17 6.24 0 .61.12 1.23.12 1.84a8.21 8.21 0 00.24 2.61 2.22 2.22 0 010 .52v1.1c0 .36.07.48.08.72a9.16 9.16 0 00.4 3 9.83 9.83 0 01.37 1.35 8.81 8.81 0 00.28 1.28 9.49 9.49 0 01.5 2.63 1.15 1.15 0 00.16.56c.69.82.51 1.88.82 2.8.12.37.18.76.28 1.13a9.06 9.06 0 00.29.88c.36 1 .66 2 1.11 2.94a8.53 8.53 0 01.87 2 1.46 1.46 0 00.16.36c.16.29.32.57.47.86.28.52.52 1.06.82 1.57.42.73.88 1.45 1.33 2.17l1.2 1.87c.31.47.6 1 .94 1.43a14.06 14.06 0 001.63 2.37 3.88 3.88 0 01.52.83c.08.13.14.27.23.4l1.67 2.2c.56.74 1.11 1.51 1.71 2.23.94 1.12 1.92 2.22 2.9 3.31.67.75 1.38 1.47 2.07 2.21.52.56 1.05 1.11 1.55 1.69a.92.92 0 01.21.57c-.79 7-.82 14.15-2.34 21.1-.92 4.16-4.25 13.34 1.93 15a4.45 4.45 0 00.89.13h1.7c.57 0 1.08.1 1.62.13a.7.7 0 00.3-.12 5.25 5.25 0 002.06-1.24c.08-.1.29-.1.42-.17a1.69 1.69 0 00.89-.64c.56-1 1.12-2 1.67-3a1 1 0 00.14-.37c.14-.84.25-1.69.38-2.53.19-1.22.35-2.43.57-3.64a32 32 0 00.6-4.36v-1.32c.05-.92.13-1.83.21-2.75 0-.24.05-.48.08-.72.13-1 .27-1.91.37-2.86a8.38 8.38 0 000-1.12 5.72 5.72 0 01.77-2.28c.23-.52.38-.58.92-.41a7.12 7.12 0 002.79.26c.51 0 1-.28 1.53 0a.84.84 0 00.57-.07 5.68 5.68 0 012-.3 5.06 5.06 0 001-.22l1-.27c.13 0 .29 0 .38-.07.66-.52 1.5-.46 2.23-.74a2.15 2.15 0 011.39-.25c.07 0 .21-.07.28-.14a2.15 2.15 0 011.17-.54 2.86 2.86 0 001.32-.55 4 4 0 012.11-1.1 1.57 1.57 0 00.43-.15 1.08 1.08 0 011.18 0c.14.08.35.19.47.15a.44.44 0 01.6.24c.34.63.65 1.28 1 1.92s.54 1.28.82 1.91a10.47 10.47 0 01.76 1.68 26.83 26.83 0 001.17 2.7c.36 1 .9 1.89 1.31 2.86s.75 1.95 1.13 2.92a3.9 3.9 0 00.19.35c.12.25.25.5.36.76s.1.38.19.55c.27.53.58 1 .82 1.58a2.9 2.9 0 01.34 1.31 1.48 1.48 0 00.14.83 1.24 1.24 0 00-.12.71 7.35 7.35 0 00.65 1.2c.18.31.25.29.55 0a4.1 4.1 0 01.21.48 5.32 5.32 0 01.51 1.55 7.8 7.8 0 00.39 2c.18.58.29 1.19.5 1.76A3.34 3.34 0 0069 207.4a5.15 5.15 0 011.71 1.51 13 13 0 001 1.24 1.15 1.15 0 00.48.3 8 8 0 001.09.18 2.74 2.74 0 00.64 0 8.7 8.7 0 00.89-.15 1 1 0 00.51-.23 5.79 5.79 0 00.87-1.3 1.4 1.4 0 011.63-.87h.07c.5 0 .48 0 .6-.48a.93.93 0 01.26-.5 1.06 1.06 0 00.45-1 2.88 2.88 0 010-.59 7.67 7.67 0 00-.36-4.08 11.24 11.24 0 01-.32-1.27 6.49 6.49 0 00-.23-.75c-.11-.28-.25-.56-.34-.85a11.64 11.64 0 00-1-3 2.7 2.7 0 01-.18-.57c-.13-.39-.25-.78-.4-1.17a7.59 7.59 0 01-.35-.77 3.47 3.47 0 00-.65-1.63s0-.16-.08-.24c-.35-1.06-.69-2.13-1-3.18-.2-.58-.42-1.15-.67-1.72-.36-.84-.74-1.67-1.11-2.51-.49-1.08-1-2.16-1.46-3.23-.16-.36-.39-.68-.55-1-.48-1.15-.94-2.31-1.42-3.46a2.83 2.83 0 00-.43-.87 3.27 3.27 0 01-.63-1.41c-.18-.61-.4-1.21-.63-1.8-.55-1.41-1.14-2.8-1.66-4.22a2.23 2.23 0 01.42-2.28c.35-.44.63-.94 1-1.41a3.36 3.36 0 01.34-.38c.51.62 1 1.17 1.44 1.77a26.2 26.2 0 003 3.44l2.46 2.37a12.54 12.54 0 001.18 1.13 16.71 16.71 0 002.62 1.19 1.67 1.67 0 00.39.06l1.18.12a4.62 4.62 0 003.2-.38 3 3 0 01.66-.28l1.43-.46c.5-.15 1-.27 1.5-.43s.89-.36 1.35-.5a2.57 2.57 0 001.25-.8 16.33 16.33 0 011.73-1.7c.54-.45 1.18-.77 1.36-1.53 0-.1.12-.18.19-.26.36-.46.61-1 1.17-1.31a.48.48 0 00.17-.2c.41-.8.81-1.6 1.2-2.41a5.19 5.19 0 01.42-1 13.41 13.41 0 001-2.15 9.34 9.34 0 00.65-2.06c.13-.46.2-.93.31-1.4 0-.17.11-.33.16-.5s.18-.45.24-.68c.2-.83.4-1.66.58-2.5.26-1.15.54-2.31.72-3.47.14-.89.13-1.79.2-2.69 0-.7.15-1.4.17-2.1a3.52 3.52 0 00-.18-1.1 9 9 0 01-.26-2.53c0-1 .17-2.09.2-3.14v-3.82a11.87 11.87 0 000-2.23 4.15 4.15 0 01.06-1c0-.28.08-.57.09-.85 0-1.29.07-2.59.11-3.88a26.69 26.69 0 00-.09-4 7 7 0 01.05-1.43 2.28 2.28 0 000-.78 4.26 4.26 0 010-2 5.85 5.85 0 01.39-1.9.35.35 0 000-.26c-.18-.47.07-.78.43-1a1.53 1.53 0 01-.3-1.46 1.39 1.39 0 00.06-1.24 1 1 0 010-.64.44.44 0 01.25-.32c.21-.07.31.09.36.28a7.29 7.29 0 00.33 1.34 1.4 1.4 0 010 1.2c-.06.14-.14.33-.09.43.22.36.09.73.09 1.09a10 10 0 000 1.64 12.14 12.14 0 00.46 1.64 10.28 10.28 0 01.9 3 .47.47 0 00.19.33 1.21 1.21 0 01.36 1.14 1.15 1.15 0 00.09.62 1.74 1.74 0 01.37 1.35c0 .24.07.48.35.46s.61 0 .73-.33 0-.53-.35-.66-.28-.34-.07-.59c.36.17.66.33.64.8s.07.7 0 1 0 .69.33.92a.66.66 0 01.18.34c.22 1.09.44 2.18.63 3.28.07.43.06.87.12 1.3a17.16 17.16 0 01.3 2.12 8.87 8.87 0 00.34 2.06 2.94 2.94 0 01.1 1 3.84 3.84 0 00.25 1.81c.1.29.14.59.23.88.3 1 0 2 .47 2.93v.13c.06.27.12.55.17.83a1 1 0 010 .44c-.08.37-.22.72.09 1.06v.18c-.09.34-.18.67-.28 1l-.68.14c.11.31.12.72.31.85.4.26.28.52.09.93a2.19 2.19 0 00.58-.09c.16-.1.32-.33.5-.16s.09.36.1.54a1.37 1.37 0 01-.07.29.79.79 0 01-.17 0c-.59.08-.67.2-.35.68a9.79 9.79 0 00.67.8c-.07.32-.36.61-.15 1 0 0 0 .19-.07.24-.33.29-.15.56 0 .88a2.09 2.09 0 01.28 1.49 3.36 3.36 0 00.09 1.69 11.41 11.41 0 01.42 2.06 5.8 5.8 0 00.59 2 6.65 6.65 0 01.49 1.67c.19.82.07 1.72.66 2.43.07.08.05.22.09.32.43 1.1.41 2.3.81 3.42.19.51.35 1 .57 1.53a6.89 6.89 0 01.33 1c.18.65.31 1.32.53 2a11.77 11.77 0 011 2.75 4 4 0 00.43 1.1 1.06 1.06 0 01.15.43c-.06.65.64 1 .54 1.7.32.18.21.49.24.76a2 2 0 00.1.59c.5 1.32 1 2.65 1.53 4a21.86 21.86 0 00.91 2 7.5 7.5 0 01.5 1.12c.17.47.29 1 .82 1.3v.05l-.06.22-.06.25.7.3c-.26.55.18.68.51.88.12.07.31.17.32.27s-.12.29-.18.41.25.32.21.43c-.17.5.11.73.47 1a1 1 0 01.56.7 1 1 0 00.82 1 2.45 2.45 0 00.62 1.65 10.26 10.26 0 01.61.95.57.57 0 00.34.26c.45.06.61.38.77.73a1.76 1.76 0 00.33.64 16.62 16.62 0 012 2.46c.23.26.49.5.69.77s.55.36.79.55.34.59.54.86.33.21.46.35q.62.63 1.2 1.29a1.16 1.16 0 01.33.46c0 .15-.13.33-.23.54.16.11.34.34.47.31a2.85 2.85 0 00.72-.36c.61.34 1.23.66 1.81 1a6.09 6.09 0 002 1 .48.48 0 01.28.17 1.7 1.7 0 001.11.52 7.5 7.5 0 011.34.33 2.46 2.46 0 001.34.11c.54-.07 1.09-.06 1.63-.13a7.64 7.64 0 001.15-.26c.3-.1.59-.26.95-.42a1 1 0 011.15-.86c.33 0 .52-.17.66-.52a3.77 3.77 0 01.82-1.25c.22-.22.47-.37.48-.71s0-.64 0-1 .14-.34.12-.53zM107.78 72a.14.14 0 010 .06h-.1l-.06-.1s.13.04.16.04zm-82.49 75.81c-.05 1-.05 2-.12 3 0 .54-.18 1.07-.25 1.61s0 .87-.11 1.3c-.12.6.06 1.26-.34 1.83a1.33 1.33 0 000 .7 1.57 1.57 0 01-.31 1 .37.37 0 01-.61.11 2.2 2.2 0 01-.48-.43c-.82-1.09-1.63-2.18-2.42-3.29s-1.7-2.43-2.51-3.67c-.55-.85-1.05-1.75-1.57-2.63s-1-1.69-1.5-2.55-.88-1.62-1.29-2.44a7.61 7.61 0 01-.35-1c-.11-.36-.2-.72-.31-1.07-.34-1.11-.69-2.21-1-3.31-.08-.26-.17-.5-.24-.76-.16-.65-.33-1.31-.48-2s-.24-1.11-.35-1.68c-.06-.34-.08-.69-.13-1l-.3-2.07a5.51 5.51 0 01-.08-.71c-.08-1.34 0-2.69-.25-4a42.85 42.85 0 01-.15-4.53c0-1 0-1.93.08-2.89v-1.71c.1-1.18.24-2.36.35-3.54.07-.76.09-1.53.16-2.3a13.38 13.38 0 01.74-3.53 6.82 6.82 0 00.31-1.26c.27-1.29.52-2.58.79-3.86s.48-2.59.81-3.85a14.42 14.42 0 011-2.82A7 7 0 0117 91.57a1.24 1.24 0 011.38.06 10.51 10.51 0 012 1.63c.63.77 1.3 1.47 2 2.2A4.71 4.71 0 0123.8 98a3.83 3.83 0 00.22.62c.13.41.24.83.36 1.26 0 .17.06.34.11.51a6 6 0 01.33.85 4.06 4.06 0 01-.06.85h-.05c.06 1.15.06 2.32.23 3.46a7.55 7.55 0 010 1.84 7.05 7.05 0 00.26 2.46 3.18 3.18 0 01.05 1.23 11.09 11.09 0 000 1.63c0 .39.06.79.06 1.18 0 .94-.05 1.88 0 2.82 0 1.76.06 3.52.1 5.27 0 1 .07 1.93.1 2.9v1.83c0 1.67.15 3.33 0 5-.07.8 0 1.62 0 2.43v3.35c0 .45.07.91.08 1.37v3.16a48.29 48.29 0 01-.3 5.79zm25.41 15.73c-.15.34-.27.7-.45 1a2.28 2.28 0 01-.49.49 3.22 3.22 0 00-.73.63 1.72 1.72 0 01-.68.58c-.33.18-.63.39-1 .58a1.89 1.89 0 01-.54.25 11.84 11.84 0 00-2.46 1.18 4.78 4.78 0 01-2.84.58.86.86 0 00-.45 0 4.42 4.42 0 01-2.69.14 2.32 2.32 0 00-.45-.06 3.07 3.07 0 01-1.79-.57 1.63 1.63 0 01-.9-1.5v-1.38-6.72c0-.84-.13-1.67-.19-2.5v-1.45c-.08-2.27-.17-4.55-.25-6.83 0-1.27-.08-2.54-.14-3.81 0-.7-.14-1.39-.17-2.09-.06-1.25-.12-2.5-.11-3.74a21.67 21.67 0 00-.6-4.69c-.21-.92-.45-1.82-.66-2.73 0-.14.06-.3.06-.45 0-1.09-.07-2.19-.11-3.28v-.79a22.92 22.92 0 00.13-3.21c-.09-1.12-.06-2.24-.08-3.36v-2a1.07 1.07 0 01.5-1 8.26 8.26 0 01.68 1q1.07 2.23 2.08 4.48c.47 1 .92 2.09 1.34 3.15s.71 1.93 1.07 2.9c.1.28.26.55.36.84.42 1.24.81 2.49 1.24 3.72.32.93.7 1.84 1 2.77.23.69.45 1.38.62 2.08a18 18 0 001 2.84c.47 1.11.81 2.27 1.22 3.4.12.33.3.63.43 1a21.57 21.57 0 011.11 3.16 23.39 23.39 0 00.91 2.51c.26.85.54 1.7.84 2.54.39 1.1.61 2.26 1.11 3.34s.79 2.18 1.19 3.28a7.33 7.33 0 01.44 1.49 5.07 5.07 0 00.5 1.41 1 1 0 01-.05.82zm15 35.54l-.21-.26.13-.1c.06.1.12.19.17.29a.31.31 0 01-.09.07zm.33-26.2a9.89 9.89 0 001 2 .64.64 0 01.15.28 8.4 8.4 0 00.84 2.67l-.06.17a4.44 4.44 0 01-1-1.48 2.18 2.18 0 00-.33-.54s-.08-.05-.1-.09c-.27-.57-.55-1.13-.8-1.71s-.36-1-.55-1.53-.16-.42 0-.86c.6.14.68.67.82 1.09zm25.72-41.49a1.1 1.1 0 01-.09-.14s0-.06.06-.1l.15.11zm0-.82c0-.06-.12-.13-.12-.19s.07-.12.15-.24c.06.14.13.22.12.28s-.1.1-.15.15zm3.35-28.17v-.12l.39-.13.06.2zm.79 1.57v-.11a.6.6 0 01.11-.12l.11.18a1 1 0 01-.22.08zm-.19-.92c0-.28.16-.39.46-.45.01.4-.16.4-.46.45zm18.45 70.09l-.06-.08.09-.05a.47.47 0 01-.03.13zm21.91 26.92L136 200l.09-.05v.05a.41.41 0 01-.03.06zM134.1 194.63z"/><path d="M134.1 194.63a.5.5 0 00.21-.13.5.5 0 01-.21.13zM119.53 187.89v.05l-.06.22.06-.22zM95.75 98.52c.3-.16.7-.12.89-.49a.42.42 0 01.31-.21c.41 0 .58-.22.65-.59a1 1 0 00-.17-1l-.25.92c-.31.09-.68.1-.86.29a1.35 1.35 0 01-.76.54c-.09 0-.2.23-.19.34a.26.26 0 00.38.2zM49.17 131.72c.08.43.15.84.23 1.33h.47l-.29-1.1c-.05-.17-.16-.3-.41-.23zM96.69 99.73a.86.86 0 00.39.15c.12 0 .25-.08.49-.17a1.87 1.87 0 00-.43-.29.8.8 0 00-.42.09s-.06.2-.03.22zM97.22 98.36a1.48 1.48 0 00-.4.23c.08.08.17.23.25.23a2.25 2.25 0 00.55-.18c-.22-.16-.32-.3-.4-.28zM48.79 131.23c.39 0 .58-.17.83-.53-.4.12-.69.14-.83.53zM97 96.22l.3-.64c-.55.23-.55.23-.3.64zM97.41 94.6l-.24.64c.46-.13.46-.13.24-.64zM109.23 74.28v-1h-.06v1zM96.89 93.6h-.1v.32h.15zM95.81 96.58s.11 0 .21-.07l-.24-.16s-.06.07-.06.1.05.13.09.13zM110.09 100.13a.23.23 0 00.11.17s.1 0 .15-.07l-.14-.19s-.13.07-.12.09zM115.86 142.44c0-.05-.06-.11-.08-.11a.49.49 0 00-.16 0s0 .09.06.09a.62.62 0 00.18.02zM41.08 119.15a1.09 1.09 0 00.08.15l.11-.09-.1-.13s-.09.05-.09.07z"/></svg>