<?xml version="1.0" encoding="UTF-8" standalone="no"?>
<!DOCTYPE svg PUBLIC "-//W3C//DTD SVG 1.1//EN" "http://www.w3.org/Graphics/SVG/1.1/DTD/svg11.dtd">
<svg width="100%" height="100%" viewBox="0 0 159 226" version="1.1" xmlns="http://www.w3.org/2000/svg" xmlns:xlink="http://www.w3.org/1999/xlink" xml:space="preserve" xmlns:serif="http://www.serif.com/" style="fill-rule:evenodd;clip-rule:evenodd;stroke-linejoin:round;stroke-miterlimit:2;">
    <g>
        <path d="M157,214.92C155.762,213.971 154.326,213.312 152.8,212.99C150.27,212.75 148.1,212.15 146.46,210.13C141.18,203.65 137.93,196.31 135.31,188.45C118.194,137.423 113.981,82.942 123.05,29.89C124.05,24.44 126.77,11.11 118.93,9.09C105.87,5.72 106.3,34.83 105.61,41.62L105.55,42.21C103.09,68.03 102.4,93.92 100.09,119.75C98.61,136.38 96.94,154.16 89.61,169.42C89.368,170.155 88.826,170.754 88.12,171.07C86.94,171.4 85.95,170.14 85.43,169.07C82.78,163.37 81.84,156.65 80.89,150.47C76.8,123.98 81.96,97.14 81.5,70.47C81.35,62.06 74.65,56.34 69.83,65.18C66.75,70.84 65.2,77.63 64.15,83.95C61.636,99.193 61.585,114.741 64,130C65.44,139.19 70.68,153.17 62.59,160.73C50.685,131.621 43.446,100.815 41.14,69.45C40.301,58.136 40.167,46.781 40.74,35.45C41.027,29.61 41.517,23.787 42.21,17.98C42.81,12.98 43.41,7.98 40.93,3.28C40.036,1.442 38.245,0.197 36.21,-0C34,-0.07 32,1.54 30.67,3.32C24.67,11.15 25.01,23.51 24.97,32.86C24.97,44.26 25.97,55.64 25.77,67.04C25.68,73.34 25.57,79.63 25.55,85.93C25.55,87.37 24.98,87.19 24.09,86.71C18.988,83.821 12.485,85.02 8.75,89.54C6.32,92.43 5,96.08 3.91,99.71C-4.86,129.13 1.13,159.1 21.72,182C24.83,185.46 22.72,190 21.9,193.89C20.9,199.09 19.9,204.4 19.05,209.64C18.35,213.97 17.05,219.36 20.93,222.64C22.683,224.111 24.835,225.027 27.11,225.27C29.867,225.516 32.551,224.247 34.11,221.96C35.37,219.959 36.147,217.693 36.38,215.34C36.82,212.23 37.06,209.1 37.38,205.98C37.65,203.25 37.33,199.64 39.52,197.59C41.52,195.74 44.63,196.01 47.1,195.49C49.046,195.089 50.95,194.51 52.79,193.76C54.52,193.06 56.14,191.94 57.98,191.55C58.739,191.369 59.532,191.39 60.28,191.61C61.577,192.19 62.567,193.297 63,194.65C64,197.28 64.94,199.94 65.88,202.6C66.88,205.42 67.88,208.25 68.88,211.05C70.37,215.18 71.56,219.65 74.31,223.16C77.51,227.26 83.88,225.67 85.49,220.84C86.56,217.63 84.92,214.18 83.81,211.21C82.55,207.87 81.25,204.54 79.88,201.21C77.02,194.29 73.98,187.44 71.19,180.49C70.64,179.019 71.005,177.356 72.12,176.25C72.213,176.115 72.351,176.019 72.51,175.98C74.32,175.75 77.12,180.4 78.09,181.61C80.2,184.22 82.43,186.07 85.96,186.32C88.842,186.451 91.693,185.674 94.11,184.1C96.527,182.526 98.54,183.28 102.72,173.57L102.78,173.43C105.93,166.02 108.93,153.52 109.78,132.43C109.78,132.43 115.97,177.97 128.02,202.62C131.73,210.37 136.8,217.38 144.34,221.06C146.429,222.143 148.747,222.709 151.1,222.71C153.36,222.64 157.36,221.5 158.25,219.06C158.91,217.567 158.376,215.798 157,214.92ZM26,167.12C25.896,167.394 25.751,167.65 25.57,167.88C25.36,167.804 25.167,167.688 25,167.54C17.476,157.941 12.838,146.396 11.63,134.26C11.263,130.491 11.193,126.7 11.42,122.92C11.81,116.2 12.62,107.68 15.62,101.56C16.26,100.25 17.23,98.9 18.62,98.64C24.11,97.64 25.93,106.31 26.2,109.99C27.66,128.82 29.48,148.42 26,167.12ZM54.11,175C53.37,178.19 47.43,179.71 44.77,180.24C44.309,180.344 43.841,180.414 43.37,180.45C38.79,180.7 38.58,178.5 38.37,174.53L37.91,164.46C37.37,152.52 36.77,140.58 36.23,128.63C36.098,127.979 36.267,127.302 36.69,126.79C38.39,128.26 39.11,131.88 39.93,133.98C41.05,136.8 42.143,139.633 43.21,142.48C45.29,148 47.273,153.557 49.16,159.15C50.08,161.87 50.98,164.59 51.85,167.33C52.48,169.22 54.56,173.09 54.11,175Z" style="fill:rgb(42,120,255);fill-rule:nonzero;"/>
        <path d="M38,201.38C37.995,201.396 37.995,201.414 38,201.43C38.005,201.446 38,201.43 38,201.43L38,201.38Z" style="fill:rgb(42,120,255);fill-rule:nonzero;"/>
    </g>
</svg>
