<?xml version="1.0" encoding="utf-8"?>
<!-- Generator: Adobe Illustrator 22.1.0, SVG Export Plug-In . SVG Version: 6.00 Build 0)  -->
<svg version="1.1" id="Layer_1" xmlns="http://www.w3.org/2000/svg" xmlns:xlink="http://www.w3.org/1999/xlink" x="0px" y="0px"
	 viewBox="0 0 132.3 253.4" style="enable-background:new 0 0 132.3 253.4;" xml:space="preserve">
<style type="text/css">
	.st0{fill:#3C6AB5;}
	.st1{fill:#FFFFFF;stroke:#000000;stroke-miterlimit:10;}
	.st2{fill:#134578;}
	.st3{fill:#80B0EE;}
</style>
<path class="st0" d="M45.9,213.4c-5.7-4.1,8.3-31.1,13.9-45.5C72.2,136.6,75.4,86.3,31.5,4.3c11.1,4.6,29,13.5,45.9,30.3
	c58,57.8,50.8,157.3,40.2,160c-2.5,0.6-3.2-4.4-9.6-7.2C86.2,178.1,53.5,218.8,45.9,213.4z"/>
<path class="st1" d="M112.2,197.2"/>
<path class="st2" d="M24.3,224.4c-0.7,4.6,53,28.2,76.4,7.9c5.6-4.8,13.4-15.6,13.3-27.9c0-2.7-0.3-5.2-1.8-7.3
	c-4.2-5.8-14.4-4.3-16.2-4c-6.5,1.1-10.2,4.2-16.8,9c-9.9,7.2-19.3,14.2-29.4,18C34.7,226,24.6,222.5,24.3,224.4z"/>
<path class="st1" d="M45.4,184.9"/>
<path class="st3" d="M42.5,191c0.4-1.4,1.3-5.9-1-10.5c-2.5-4.9-7.8-8.1-13.7-8.4c2.4-3.9,5.7-9.8,8.7-17.2
	c11.3-27.5,9.8-52.4,8.1-76.9c-0.8-11.9-2.7-28-7.1-47c8.2,13.6,27,49,23.6,96.3C58.9,155.8,49.5,177.8,42.5,191z"/>
<path class="st1" d="M9.5,248"/>
<path class="st0" d="M7.9,213.5c3.3,3.9,7.3,7.9,12.2,11.7c21.4,16.6,45.8,17.9,57.3,17.7c-2.7,1.7-7.4,4.2-14.6,5.2
	C37.8,251.8,6.5,232,6.5,232c1.7,0,2.7-0.5,3.3-1C12.8,228.6,12.2,221.6,7.9,213.5z"/>
</svg>
